<?xml version="1.0" encoding="UTF-8"?> <svg xmlns="http://www.w3.org/2000/svg" width="336.917" height="44.77" viewBox="0 0 336.917 44.77"><g id="Group_390" data-name="Group 390" transform="translate(-48 -46)"><path id="Path_274" data-name="Path 274" d="M5420.644,1217.984l-12.712,35.312h2.018l3.833-10.745h10.767l1.211-1.816h-11.323l6.76-19.018,10.795,31.579h4.843l-12.208-35.312Z" transform="translate(-5335.421 -1167.506)" fill="#fff"></path><path id="Path_275" data-name="Path 275" d="M5435.9,1217.984h-4.641V1253.3h19.673v-1.615H5435.9Z" transform="translate(-5323.74 -1167.506)" fill="#fff"></path><path id="Path_276" data-name="Path 276" d="M5396.805,1225.55a6.4,6.4,0,0,1,6.608-6.691c3.127,0,5.649,1.748,7.769,3.816l.008-.007.663-.986a11.46,11.46,0,0,0-8.691-4c-6.457,0-10.291,3.379-10.291,8.878,0,10.8,16.444,9.132,16.444,19.018a7.138,7.138,0,0,1-7.365,7.2c-4.082,0-7.66-2.9-9.679-4.972l-.672,1a14.915,14.915,0,0,0,11.058,5.147c5.6,0,10.493-3.429,10.493-9.534C5413.149,1231.856,5396.805,1233.875,5396.805,1225.55Z" transform="translate(-5343.599 -1167.658)" fill="#fff"></path><path id="Path_277" data-name="Path 277" d="M5453.313,1235.993h11.273l1.12-1.664h-12.393V1219.6h14.377l1.086-1.615h-20.1V1253.3H5469.3v-1.615h-15.991Z" transform="translate(-5315.024 -1167.506)" fill="#fff"></path><path id="Path_278" data-name="Path 278" d="M5544.353,1236.951c5-1.312,8.425-4.287,8.425-9.081,0-6.81-6.608-9.886-15.133-9.886h-12.812v35.31h9.13v-15.587h.534l9.109,13.539,1.354,2.048h10.39Zm-8.677-1.615h-1.713v-14.981h1.766c4.589,0,7.667,2.623,7.667,7.616S5540.369,1235.336,5535.676,1235.336Z" transform="translate(-5276.895 -1167.506)" fill="#fff"></path><path id="Path_279" data-name="Path 279" d="M5473.287,1224.542a5.371,5.371,0,0,1,5.4-5.4c3.275,0,5.645,1.715,7.913,3.628l.807-1.2a12.408,12.408,0,0,0-9.325-3.891c-7.92,0-12.156,3.885-12.156,9.534,0,11.6,16.292,10.443,16.292,18.917,0,3.43-2.371,6.294-6.558,6.294-3.932,0-7.814-2.709-9.933-4.676l-.833,1.237a15.981,15.981,0,0,0,11.825,4.964c6.961,0,12.714-4.085,12.714-11.1C5489.43,1230.645,5473.287,1231.553,5473.287,1224.542Z" transform="translate(-5306.904 -1167.658)" fill="#fff"></path><path id="Path_280" data-name="Path 280" d="M5514.132,1236.4h10.347l1.6-2.37h-11.942v-13.671H5526.1l1.6-2.371H5505.1V1253.3h23.1v-2.371h-14.074Z" transform="translate(-5286.773 -1167.506)" fill="#fff"></path><path id="Path_281" data-name="Path 281" d="M5494.4,1236.4h10.35l1.6-2.37H5494.4v-13.671h11.957l1.594-2.371h-22.581V1253.3h23.1v-2.371H5494.4Z" transform="translate(-5296.649 -1167.506)" fill="#fff"></path><g id="Group_155" data-name="Group 155" transform="translate(291.601 46)"><g id="Group_154" data-name="Group 154" transform="translate(0 0)"><rect id="Rectangle_181" data-name="Rectangle 181" width="1.174" height="44.77" fill="#fff"></rect></g></g><g id="Group_157" data-name="Group 157" transform="translate(305.92 50.475)"><g id="Group_156" data-name="Group 156" transform="translate(0 0)"><path id="Path_282" data-name="Path 282" d="M5564.783,1226.17h-1.312l2.945-8.188h1.428l2.947,8.188h-1.313l-2.312-6.7h-.064Zm.219-3.207h4.254V1224H5565Z" transform="translate(-5563.471 -1217.982)" fill="#fff"></path><path id="Path_283" data-name="Path 283" d="M5573.771,1226.17h-2.65v-8.188h2.732a4.114,4.114,0,0,1,2.068.491,3.255,3.255,0,0,1,1.326,1.4,5.411,5.411,0,0,1,0,4.386,3.267,3.267,0,0,1-1.344,1.414A4.293,4.293,0,0,1,5573.771,1226.17Zm-1.416-1.079h1.346a3.107,3.107,0,0,0,1.557-.354,2.2,2.2,0,0,0,.926-1.028,4.526,4.526,0,0,0,0-3.279,2.172,2.172,0,0,0-.909-1.019,2.956,2.956,0,0,0-1.5-.348h-1.423Z" transform="translate(-5559.641 -1217.982)" fill="#fff"></path><path id="Path_284" data-name="Path 284" d="M5577.159,1226.17h-1.311l2.946-8.188h1.427l2.948,8.188h-1.312l-2.315-6.7h-.064Zm.221-3.207h4.252V1224h-4.252Z" transform="translate(-5557.273 -1217.982)" fill="#fff"></path><path id="Path_285" data-name="Path 285" d="M5580.594,1219.046v-1.064h6.334v1.064h-2.553v7.124h-1.231v-7.124Z" transform="translate(-5554.899 -1217.982)" fill="#fff"></path><path id="Path_286" data-name="Path 286" d="M5585.993,1226.17h-1.312l2.947-8.188h1.427l2.945,8.188h-1.313l-2.313-6.7h-.064Zm.219-3.207h4.254V1224h-4.254Z" transform="translate(-5552.852 -1217.982)" fill="#fff"></path><path id="Path_287" data-name="Path 287" d="M5565.118,1226.984v8.186h-1.235v-8.186Z" transform="translate(-5563.264 -1213.475)" fill="#fff"></path><path id="Path_288" data-name="Path 288" d="M5572.513,1226.984v8.186h-1.136l-4.162-6h-.076v6h-1.233v-8.186h1.142l4.166,6.011h.077v-6.011Z" transform="translate(-5562.251 -1213.475)" fill="#fff"></path><path id="Path_289" data-name="Path 289" d="M5571.237,1228.048v-1.064h6.336v1.064h-2.555v7.122h-1.23v-7.122Z" transform="translate(-5559.582 -1213.475)" fill="#fff"></path><path id="Path_290" data-name="Path 290" d="M5576.39,1235.17v-8.186h5.132v1.064h-3.9v2.494h3.631v1.058h-3.631v2.507h3.945v1.062Z" transform="translate(-5557.002 -1213.475)" fill="#fff"></path><path id="Path_291" data-name="Path 291" d="M5580.913,1235.17v-8.186h1.234v7.124h3.71v1.062Z" transform="translate(-5554.738 -1213.475)" fill="#fff"></path><path id="Path_292" data-name="Path 292" d="M5585.146,1235.17v-8.186h1.233v7.124h3.71v1.062Z" transform="translate(-5552.619 -1213.475)" fill="#fff"></path><path id="Path_293" data-name="Path 293" d="M5590.614,1226.984v8.186h-1.234v-8.186Z" transform="translate(-5550.5 -1213.475)" fill="#fff"></path><path id="Path_294" data-name="Path 294" d="M5597.027,1229.607a2.435,2.435,0,0,0-.311-.653,2.038,2.038,0,0,0-.46-.5,1.89,1.89,0,0,0-.609-.313,2.484,2.484,0,0,0-.75-.11,2.255,2.255,0,0,0-1.248.357,2.409,2.409,0,0,0-.878,1.04,3.955,3.955,0,0,0-.321,1.678,3.9,3.9,0,0,0,.325,1.682,2.373,2.373,0,0,0,.887,1.043,2.341,2.341,0,0,0,1.283.357,2.4,2.4,0,0,0,1.164-.272,1.908,1.908,0,0,0,.772-.77,2.4,2.4,0,0,0,.274-1.173l.32.06h-2.343v-1.019h3.219v.93a3.506,3.506,0,0,1-.438,1.789,2.978,2.978,0,0,1-1.208,1.169,3.962,3.962,0,0,1-3.708-.1,3.454,3.454,0,0,1-1.3-1.453,4.977,4.977,0,0,1-.467-2.237,5.335,5.335,0,0,1,.269-1.759,3.859,3.859,0,0,1,.766-1.325,3.324,3.324,0,0,1,1.165-.834,3.606,3.606,0,0,1,1.464-.291,3.816,3.816,0,0,1,1.239.2,3.384,3.384,0,0,1,1.023.555,3.143,3.143,0,0,1,.743.854,3.207,3.207,0,0,1,.4,1.093Z" transform="translate(-5549.575 -1213.513)" fill="#fff"></path><path id="Path_295" data-name="Path 295" d="M5597.019,1235.17v-8.186h5.133v1.064h-3.9v2.494h3.629v1.058h-3.629v2.507h3.945v1.062Z" transform="translate(-5546.675 -1213.475)" fill="#fff"></path><path id="Path_296" data-name="Path 296" d="M5608.149,1226.984v8.186h-1.135l-4.163-6h-.076v6h-1.234v-8.186h1.144l4.166,6.011h.075v-6.011Z" transform="translate(-5544.411 -1213.475)" fill="#fff"></path><path id="Path_297" data-name="Path 297" d="M5614.03,1229.684h-1.248a1.892,1.892,0,0,0-.269-.7,1.953,1.953,0,0,0-.478-.515,2,2,0,0,0-.636-.32,2.488,2.488,0,0,0-.74-.11,2.3,2.3,0,0,0-1.267.357,2.412,2.412,0,0,0-.879,1.043,4.575,4.575,0,0,0,0,3.366,2.375,2.375,0,0,0,.882,1.038,2.312,2.312,0,0,0,1.257.353,2.537,2.537,0,0,0,.739-.106,2.06,2.06,0,0,0,.632-.314,1.89,1.89,0,0,0,.756-1.2l1.248,0a3.345,3.345,0,0,1-.385,1.109,3.1,3.1,0,0,1-.732.872,3.325,3.325,0,0,1-1.017.566,3.785,3.785,0,0,1-1.249.2,3.563,3.563,0,0,1-1.893-.506,3.493,3.493,0,0,1-1.311-1.45,5.553,5.553,0,0,1,0-4.5,3.519,3.519,0,0,1,1.312-1.447,3.562,3.562,0,0,1,1.89-.505,3.86,3.86,0,0,1,1.217.186,3.256,3.256,0,0,1,1.02.545,3.058,3.058,0,0,1,.747.87A3.392,3.392,0,0,1,5614.03,1229.684Z" transform="translate(-5541.693 -1213.513)" fill="#fff"></path><path id="Path_298" data-name="Path 298" d="M5612.66,1235.17v-8.186h5.131v1.064h-3.9v2.494h3.628v1.058h-3.628v2.507h3.946v1.062Z" transform="translate(-5538.843 -1213.475)" fill="#fff"></path><path id="Path_299" data-name="Path 299" d="M5570.771,1238.684h-1.248a1.933,1.933,0,0,0-.267-.7,1.979,1.979,0,0,0-.48-.516,2.107,2.107,0,0,0-.633-.32,2.507,2.507,0,0,0-.742-.108,2.3,2.3,0,0,0-1.265.356,2.41,2.41,0,0,0-.88,1.043,4.575,4.575,0,0,0,0,3.366,2.388,2.388,0,0,0,.881,1.04,2.325,2.325,0,0,0,1.261.351,2.486,2.486,0,0,0,.737-.107,2,2,0,0,0,.633-.314,1.948,1.948,0,0,0,.482-.509,1.92,1.92,0,0,0,.274-.693l1.248,0a3.378,3.378,0,0,1-.386,1.11,3.059,3.059,0,0,1-.733.87,3.248,3.248,0,0,1-1.017.566,3.754,3.754,0,0,1-1.247.2,3.578,3.578,0,0,1-1.894-.506,3.494,3.494,0,0,1-1.309-1.45,5.527,5.527,0,0,1,0-4.5,3.531,3.531,0,0,1,1.311-1.448,3.575,3.575,0,0,1,1.891-.5,3.911,3.911,0,0,1,1.219.185,3.261,3.261,0,0,1,1.016.545,2.979,2.979,0,0,1,.748.872A3.376,3.376,0,0,1,5570.771,1238.684Z" transform="translate(-5563.352 -1209.006)" fill="#fff"></path><path id="Path_300" data-name="Path 300" d="M5576.6,1240.116a4.915,4.915,0,0,1-.481,2.252,3.514,3.514,0,0,1-1.312,1.448,3.8,3.8,0,0,1-3.791,0,3.5,3.5,0,0,1-1.312-1.45,5.521,5.521,0,0,1,0-4.5,3.507,3.507,0,0,1,1.312-1.448,3.815,3.815,0,0,1,3.791,0,3.523,3.523,0,0,1,1.312,1.448A4.914,4.914,0,0,1,5576.6,1240.116Zm-1.222,0a3.948,3.948,0,0,0-.325-1.685,2.384,2.384,0,0,0-.88-1.039,2.424,2.424,0,0,0-2.522,0,2.415,2.415,0,0,0-.877,1.039,4.587,4.587,0,0,0,0,3.371,2.4,2.4,0,0,0,.877,1.038,2.422,2.422,0,0,0,2.522,0,2.373,2.373,0,0,0,.88-1.038A3.944,3.944,0,0,0,5575.377,1240.116Z" transform="translate(-5560.59 -1209.006)" fill="#fff"></path><path id="Path_301" data-name="Path 301" d="M5575.162,1235.985h1.5l2.606,6.364h.1l2.607-6.364h1.5v8.188h-1.175v-5.925h-.077l-2.413,5.912h-.976l-2.416-5.916h-.076v5.928h-1.173Z" transform="translate(-5557.617 -1208.969)" fill="#fff"></path><path id="Path_302" data-name="Path 302" d="M5581.9,1244.173v-8.188h2.916a3.242,3.242,0,0,1,1.584.348,2.263,2.263,0,0,1,.939.95,3.095,3.095,0,0,1,0,2.71,2.292,2.292,0,0,1-.945.951,3.226,3.226,0,0,1-1.58.349H5582.8v-1.047h1.9a2.008,2.008,0,0,0,.979-.21,1.3,1.3,0,0,0,.553-.573,1.9,1.9,0,0,0,.175-.828,1.869,1.869,0,0,0-.175-.822,1.267,1.267,0,0,0-.555-.564,2.1,2.1,0,0,0-.992-.2h-1.552v7.127Z" transform="translate(-5554.247 -1208.969)" fill="#fff"></path><path id="Path_303" data-name="Path 303" d="M5587.007,1244.173H5585.7l2.947-8.188h1.426l2.946,8.188H5591.7l-2.313-6.7h-.064Zm.22-3.207h4.253v1.04h-4.253Z" transform="translate(-5552.343 -1208.969)" fill="#fff"></path><path id="Path_304" data-name="Path 304" d="M5597.968,1235.985v8.188h-1.137l-4.161-6h-.075v6h-1.235v-8.188h1.144l4.163,6.013h.077v-6.013Z" transform="translate(-5549.508 -1208.969)" fill="#fff"></path><path id="Path_305" data-name="Path 305" d="M5596.541,1235.985h1.4l2.139,3.722h.087l2.139-3.722h1.4l-2.97,4.973v3.214h-1.23v-3.214Z" transform="translate(-5546.914 -1208.969)" fill="#fff"></path></g></g></g></svg> 